<svg xmlns="http://www.w3.org/2000/svg" xmlns:xlink="http://www.w3.org/1999/xlink" width="500" zoomAndPan="magnify" viewBox="0 0 375 374.999991" height="500" preserveAspectRatio="xMidYMid meet" version="1.0"><defs><g/></defs><path fill="#2874a6" d="M 67.738281 129.617188 C 67.625 129.617188 67.191406 129.6875 66.753906 129.734375 C 61.417969 130.238281 57.5 131.589844 53.585938 134.222656 C 51.796875 135.4375 48.914062 138.230469 47.492188 140.132812 C 46.417969 141.574219 46.324219 141.644531 45.226562 141.78125 C 44.582031 141.851562 43.164062 142.285156 42.0625 142.742188 C 40.691406 143.316406 39.613281 143.613281 38.582031 143.683594 C 36.382812 143.820312 35.011719 144.1875 32.949219 145.171875 C 30.0625 146.523438 27.726562 149.292969 26.789062 152.410156 C 26.445312 153.53125 26.582031 153.644531 27.382812 152.796875 C 28.277344 151.8125 31.4375 149.523438 32.835938 148.835938 C 35.355469 147.574219 36.429688 147.324219 39.382812 147.324219 C 42.132812 147.324219 43.253906 147.574219 46.460938 148.925781 C 46.875 149.109375 46.875 149.066406 46.371094 148.332031 C 46.074219 147.894531 45.683594 147.414062 45.5 147.277344 C 45.019531 146.886719 45.132812 146.820312 47.082031 146.132812 C 49.300781 145.355469 52.851562 145.171875 55.144531 145.699219 C 62.242188 147.371094 67.898438 154.445312 69.640625 163.929688 C 70.214844 167.019531 70.214844 173.59375 69.640625 176.410156 C 67.625 186.375 62.632812 192.285156 55.28125 193.476562 C 52.300781 193.957031 48.292969 193.179688 45.523438 191.621094 C 42.636719 189.972656 39.820312 187.269531 38.238281 184.636719 L 37.691406 183.71875 L 40.484375 183.695312 C 44.285156 183.671875 46.347656 183.214844 49.484375 181.679688 C 54.84375 179.023438 58.578125 174.257812 60.273438 167.867188 C 61.027344 165.007812 61.144531 160.355469 60.503906 157.972656 C 59.839844 155.546875 58.464844 152.980469 56.90625 151.285156 C 55.625 149.867188 53.539062 148.21875 53.332031 148.421875 C 53.289062 148.46875 53.472656 149.066406 53.792969 149.75 C 54.800781 152.019531 55.738281 155.339844 56.128906 157.996094 C 57.410156 166.816406 54.15625 174.144531 47.609375 177.238281 C 45.269531 178.3125 43.414062 178.65625 40.414062 178.519531 C 35.859375 178.289062 33.613281 177.375 28.734375 173.753906 C 24.65625 170.707031 24.175781 170.457031 20.648438 169.265625 C 18.976562 168.695312 17.007812 167.914062 16.273438 167.527344 C 14.992188 166.839844 12.035156 164.296875 12.265625 164.066406 C 12.3125 163.996094 13.136719 164.113281 14.074219 164.296875 C 23.238281 166.035156 33.246094 166.746094 36.933594 165.875 C 38.398438 165.53125 40.09375 164.753906 41.078125 163.976562 C 41.628906 163.539062 41.628906 163.539062 38.558594 163.378906 C 31.527344 163.011719 23.625 162.097656 15.679688 160.746094 L 10.753906 159.921875 L 10.6875 158.867188 C 10.527344 156.460938 11.761719 153.164062 13.367188 151.722656 C 14.601562 150.597656 15.039062 150.394531 18.953125 149.15625 C 22.941406 147.894531 24.453125 147.164062 27.246094 145.078125 C 29.488281 143.382812 31.324219 142.445312 33.863281 141.621094 C 35.949219 140.933594 39.292969 140.359375 41.722656 140.292969 C 42.730469 140.246094 43.53125 140.132812 43.460938 140.015625 C 43.210938 139.628906 40.070312 138.324219 38.71875 138.046875 C 36.820312 137.65625 33.246094 137.703125 31.597656 138.164062 C 28.917969 138.871094 27.613281 139.652344 24.269531 142.445312 C 22.34375 144.070312 21.128906 144.644531 17.417969 145.699219 C 13.664062 146.75 11.695312 147.78125 10.089844 149.523438 C 7.867188 151.90625 6.746094 154.949219 6.722656 158.546875 C 6.699219 161.136719 7 162.371094 8.1875 164.84375 C 9.976562 168.53125 13.023438 170.9375 18.3125 172.863281 C 25.277344 175.382812 28.34375 178.359375 31.160156 185.230469 C 33.085938 189.972656 34.734375 192.878906 37.253906 195.949219 L 38.628906 197.621094 L 37.621094 198.925781 C 33.246094 204.539062 30.773438 210.722656 30.109375 217.753906 C 29.832031 220.457031 30.015625 223.753906 30.542969 226.046875 C 30.636719 226.449219 30.648438 226.757812 30.59375 226.863281 C 30.597656 226.867188 30.597656 226.871094 30.597656 226.871094 C 30.957031 227.214844 31.238281 227.621094 31.511719 228.035156 C 32.695312 228.609375 34.148438 229.199219 35.148438 229.457031 C 35.71875 229.597656 36.453125 229.847656 36.796875 230.03125 C 37.734375 230.511719 41.285156 231.519531 43.164062 231.839844 C 44.101562 232 45.5 232.296875 46.257812 232.503906 C 49.996094 233.523438 58.910156 233.546875 65.46875 232.613281 C 65.476562 232.566406 65.480469 232.519531 65.484375 232.472656 C 65.503906 232.335938 65.523438 232.195312 65.554688 232.058594 C 65.582031 231.9375 65.609375 231.820312 65.691406 231.722656 C 65.710938 231.699219 65.730469 231.675781 65.753906 231.65625 L 66.089844 231.015625 C 67.417969 228.382812 70.878906 226.089844 71.929688 227.144531 C 71.941406 227.152344 71.953125 227.15625 71.964844 227.164062 C 72.324219 227.085938 72.683594 227.023438 73.050781 226.976562 C 73.460938 226.902344 73.875 226.835938 74.28125 226.75 C 74.710938 226.507812 75.152344 226.214844 75.597656 225.839844 C 76.398438 225.175781 77.175781 224.417969 77.335938 224.214844 C 77.703125 223.710938 79.328125 222.585938 80.613281 221.945312 C 81.921875 221.285156 83.582031 220.722656 85.292969 220.308594 C 86 219.972656 86.722656 219.671875 87.46875 219.425781 C 88.523438 219.109375 89.589844 218.824219 90.679688 218.792969 C 90.992188 218.785156 91.304688 218.804688 91.621094 218.84375 L 91.605469 218.832031 C 91.101562 218.441406 90.460938 217.890625 90.140625 217.617188 L 89.589844 217.136719 L 90.414062 216.265625 C 90.894531 215.761719 91.261719 215.28125 91.261719 215.1875 C 91.261719 215.097656 91.835938 214.386719 92.523438 213.609375 C 93.210938 212.828125 93.78125 212.097656 93.78125 211.980469 C 93.78125 211.867188 94.261719 210.953125 94.835938 209.945312 C 95.867188 208.132812 96.757812 205.316406 96.757812 203.921875 C 96.757812 202.914062 97.402344 200.53125 97.769531 200.164062 C 98.339844 199.589844 102.691406 198.675781 104.9375 198.652344 C 106.882812 198.628906 107.089844 198.582031 108.003906 197.941406 C 108.53125 197.554688 109.128906 197.003906 109.3125 196.683594 C 109.515625 196.363281 109.539062 196.222656 109.402344 196.363281 C 109.195312 196.523438 108.714844 196.5 107.707031 196.269531 C 106.652344 195.996094 106.105469 195.972656 105.441406 196.15625 C 104.25 196.476562 104.316406 196.132812 105.601562 195.308594 C 106.675781 194.621094 108.898438 194.027344 109.496094 194.253906 C 109.675781 194.324219 109.816406 194.300781 109.816406 194.1875 C 109.816406 193.84375 109.011719 193.269531 107.640625 192.628906 C 106.378906 192.03125 106.058594 191.988281 103.46875 191.988281 C 100.835938 191.988281 100.699219 191.964844 101.042969 191.574219 C 101.617188 190.980469 103.652344 190.0625 104.59375 189.996094 C 105.074219 189.949219 105.464844 189.855469 105.464844 189.789062 C 105.464844 189.628906 103.769531 188.871094 102.371094 188.414062 C 101.867188 188.253906 100.402344 188.117188 99.140625 188.117188 L 96.828125 188.117188 L 96.53125 187.316406 C 96.09375 186.03125 95.019531 184.246094 94.011719 183.101562 L 93.070312 182.046875 L 93.667969 181.886719 C 94.582031 181.65625 96.757812 182 98.066406 182.597656 L 99.277344 183.144531 L 98.613281 181.839844 C 98.25 181.128906 97.515625 180.054688 97.011719 179.457031 C 95.820312 178.105469 93.09375 176.273438 91.332031 175.632812 C 90.597656 175.359375 89.84375 175.082031 89.660156 174.992188 C 89.429688 174.898438 89.636719 174.761719 90.230469 174.578125 C 91.765625 174.121094 94.746094 174.738281 96.324219 175.839844 C 97.242188 176.503906 97.195312 176.089844 96.140625 173.984375 C 94.5625 170.777344 90.941406 167.777344 87.070312 166.472656 L 85.878906 166.058594 L 86.796875 165.738281 C 88.835938 165.027344 92.84375 165.53125 95.132812 166.816406 C 96.324219 167.480469 96.300781 167.296875 94.8125 165.050781 C 92.246094 161.226562 87.140625 158.019531 82.855469 157.585938 C 82.191406 157.515625 81.644531 157.378906 81.644531 157.285156 C 81.644531 157.171875 82.191406 156.738281 82.855469 156.300781 C 85.925781 154.265625 88.859375 153.371094 92.566406 153.324219 C 93.988281 153.300781 95.15625 153.234375 95.15625 153.164062 C 95.15625 152.980469 93.074219 151.652344 91.835938 151.035156 C 90.371094 150.324219 88.125 149.589844 86.269531 149.246094 C 84.390625 148.902344 78.503906 149.109375 76.992188 149.566406 C 75.734375 149.980469 75.800781 149.730469 77.246094 148.722656 C 78.664062 147.734375 80.636719 147.164062 83.015625 147.003906 L 85.191406 146.867188 L 84.507812 146.246094 C 83.589844 145.378906 80.910156 144.09375 79.125 143.613281 C 76.144531 142.835938 71.429688 143.246094 68.976562 144.484375 C 68.496094 144.734375 68.039062 144.917969 67.992188 144.851562 C 67.945312 144.804688 68.839844 143.84375 70.007812 142.71875 C 71.726562 141.070312 72.574219 140.429688 74.429688 139.492188 C 76.695312 138.34375 79.535156 137.316406 81.300781 137.015625 C 82.8125 136.765625 82.925781 136.695312 82.421875 136.351562 C 81.253906 135.550781 77.472656 134.636719 74.199219 134.382812 C 68.976562 133.949219 63.984375 135.09375 60.113281 137.636719 L 59.335938 138.164062 L 60.113281 137.015625 C 61.351562 135.207031 64.625 131.933594 66.34375 130.808594 C 67.785156 129.847656 68.175781 129.527344 67.738281 129.617188 Z M 73.925781 159.0625 C 73.976562 159.0625 74.0625 159.101562 74.175781 159.164062 C 74.429688 159.300781 75.4375 160.195312 76.398438 161.179688 C 77.589844 162.371094 78.367188 163.425781 78.917969 164.5 C 79.605469 165.921875 79.695312 166.3125 79.695312 167.9375 C 79.695312 170.042969 79.328125 170.9375 77.773438 172.632812 L 76.855469 173.664062 L 76.832031 171.785156 C 76.832031 168.121094 76.007812 164.296875 74.449219 160.675781 C 73.917969 159.441406 73.773438 159.066406 73.925781 159.0625 Z M 81.699219 176.554688 C 82.042969 176.542969 82.386719 176.640625 82.855469 176.847656 C 84.09375 177.375 84.6875 178.199219 84.78125 179.550781 C 84.894531 181.0625 84.347656 182.023438 82.996094 182.710938 C 81.324219 183.582031 79.71875 182.894531 78.984375 180.992188 C 78.367188 179.320312 78.984375 177.671875 80.542969 176.917969 C 81.011719 176.6875 81.355469 176.566406 81.699219 176.554688 Z M 77.523438 180.101562 C 77.628906 180.054688 77.738281 180.292969 77.886719 180.808594 C 78.046875 181.335938 78.4375 182.207031 78.734375 182.757812 C 79.695312 184.382812 80.132812 187.109375 80.15625 191.507812 L 80.15625 195.375 L 79.351562 195.8125 C 78.117188 196.476562 77.382812 197.414062 77.0625 198.699219 C 76.695312 200.300781 77.199219 202.066406 78.320312 203.074219 C 78.757812 203.460938 79.125 203.964844 79.125 204.242188 C 79.125 204.929688 77.773438 209.027344 77.152344 210.195312 C 76.855469 210.769531 76.304688 211.640625 75.917969 212.144531 C 75.550781 212.648438 74.589844 214.5 73.785156 216.289062 C 72.984375 218.050781 72.023438 219.976562 71.632812 220.527344 C 71.265625 221.074219 70.855469 221.832031 70.71875 222.199219 C 70.558594 222.703125 69.9375 223.226562 68.289062 224.257812 C 64.671875 226.550781 62.882812 228.359375 62.289062 230.28125 C 62.175781 230.71875 62.242188 230.808594 62.609375 230.808594 C 62.882812 230.808594 63.089844 230.878906 63.089844 230.96875 C 63.066406 231.335938 62.199219 232.183594 61.601562 232.414062 C 60.960938 232.664062 52.988281 232.734375 51.59375 232.503906 C 50.789062 232.367188 50.746094 232.296875 50.882812 231.75 C 51.433594 229.457031 53.105469 226.503906 55.164062 224.214844 C 56.746094 222.496094 59.609375 220.25 62.519531 218.511719 C 66.753906 215.96875 68.632812 214.664062 70.054688 213.242188 C 71.265625 212.027344 73.558594 209.28125 73.328125 209.28125 C 73.28125 209.28125 72.503906 209.644531 71.609375 210.082031 C 67.558594 212.050781 59.472656 214.089844 55.691406 214.089844 L 54.339844 214.089844 L 55.1875 212.53125 C 56.632812 209.898438 58.441406 207.769531 63.570312 202.636719 C 69.046875 197.1875 71.382812 194.253906 73.601562 190.15625 C 74.886719 187.796875 76.808594 182.917969 77.175781 181.109375 C 77.3125 180.476562 77.417969 180.144531 77.523438 180.101562 Z M 84.941406 187.0625 C 85.652344 187.0625 85.972656 187.222656 86.703125 187.957031 C 87.460938 188.710938 87.597656 188.988281 87.597656 189.789062 C 87.597656 190.863281 87.300781 191.550781 86.589844 192.125 C 84.894531 193.523438 82.101562 192.191406 82.101562 189.996094 C 82.101562 188.300781 83.292969 187.085938 84.941406 187.0625 Z M 82.351562 196.347656 C 83.039062 196.292969 83.761719 196.46875 84.4375 196.957031 C 86.316406 198.285156 86.269531 201.261719 84.367188 202.707031 C 84.023438 202.933594 83.292969 203.210938 82.695312 203.257812 C 81.253906 203.4375 80.015625 202.636719 79.46875 201.171875 C 78.558594 198.785156 80.289062 196.511719 82.351562 196.347656 Z M 93.597656 197.1875 C 93.757812 197.230469 94.21875 197.828125 94.605469 198.46875 C 95.429688 199.820312 96.074219 202.109375 96.074219 203.621094 C 96.074219 208.019531 92.980469 212.898438 88.835938 215.074219 L 87.207031 215.921875 L 86.910156 214.179688 C 86.453125 211.5 86.703125 207.789062 87.550781 205.339844 C 87.917969 204.242188 88.582031 202.75 88.996094 202.019531 C 89.910156 200.484375 93.164062 197.050781 93.597656 197.1875 Z M 41.605469 200.804688 C 41.675781 200.804688 41.949219 201.492188 42.203125 202.339844 C 43.554688 206.78125 44.035156 210.859375 44.308594 219.816406 C 44.421875 223.527344 44.675781 227.695312 44.882812 229.070312 C 45.066406 230.464844 45.179688 231.609375 45.15625 231.65625 C 45.019531 231.773438 40.230469 230.601562 38.078125 229.917969 L 35.859375 229.207031 L 35.398438 227.761719 C 34.550781 225.265625 34.230469 223.226562 34.230469 220.386719 C 34.230469 215.507812 35.375 210.953125 37.804688 206.277344 C 38.949219 204.101562 41.21875 200.828125 41.605469 200.804688 Z M 79.871094 210.65625 C 80.433594 210.648438 81.011719 210.796875 81.550781 211.136719 C 84.09375 212.691406 83.40625 216.515625 80.453125 217.296875 C 79.671875 217.523438 79.398438 217.480469 78.503906 217.042969 C 77.222656 216.425781 76.605469 215.464844 76.605469 214.089844 C 76.605469 212.113281 78.175781 210.679688 79.871094 210.65625 Z M 74.429688 219.816406 C 75.390625 219.816406 75.6875 219.929688 76.304688 220.503906 C 76.71875 220.890625 77.132812 221.488281 77.222656 221.832031 C 77.335938 222.3125 77.246094 222.519531 76.695312 222.90625 C 76.328125 223.160156 75.367188 224.007812 74.519531 224.785156 C 73.695312 225.585938 72.917969 226.230469 72.777344 226.230469 C 72.664062 226.230469 72.34375 226 72.070312 225.703125 C 69.871094 223.367188 71.289062 219.816406 74.429688 219.816406 Z M 74.429688 219.816406 " fill-opacity="1" fill-rule="nonzero"/><path fill="#2874a6" d="M 36.75 151.078125 C 35.101562 151.582031 33.679688 152.84375 32.445312 154.882812 C 31.734375 156.027344 31.664062 156.441406 32.238281 155.957031 C 32.46875 155.753906 32.71875 155.957031 33.339844 156.898438 C 34.78125 159.097656 37.207031 160.148438 39.523438 159.625 C 41.789062 159.097656 43.507812 157.652344 44.171875 155.730469 C 44.421875 155.042969 44.5625 154.90625 44.996094 154.949219 L 45.523438 155.042969 L 45.019531 154.355469 C 44.171875 153.140625 42.269531 151.605469 41.171875 151.242188 C 40.070312 150.851562 37.757812 150.78125 36.75 151.078125 Z M 38.902344 153.460938 C 39.246094 153.988281 38.8125 155.019531 38.171875 155.25 C 37.757812 155.410156 37.53125 155.339844 37.070312 154.882812 C 36.363281 154.171875 36.363281 153.554688 37.140625 152.957031 C 37.667969 152.523438 37.804688 152.5 38.214844 152.773438 C 38.46875 152.957031 38.765625 153.257812 38.902344 153.460938 Z M 38.902344 153.460938 " fill-opacity="1" fill-rule="nonzero"/><path fill="#2874a6" d="M 15.542969 153.371094 C 15.128906 153.621094 14.648438 154.058594 14.441406 154.332031 C 13.800781 155.273438 14.074219 157.515625 14.855469 157.515625 C 15.015625 157.515625 15.632812 157.148438 16.230469 156.714844 C 17.832031 155.476562 18.382812 154.082031 17.601562 153.300781 C 17.121094 152.820312 16.410156 152.84375 15.542969 153.371094 Z M 15.542969 153.371094 " fill-opacity="1" fill-rule="nonzero"/><path fill="#2874a6" d="M 1.113281 192.140625 C 1.0625 192.144531 1.023438 192.269531 1.042969 192.46875 C 1.042969 192.554688 1.050781 192.621094 1.066406 192.660156 C 1.070312 192.671875 1.074219 192.679688 1.078125 192.691406 C 1.105469 192.730469 1.144531 192.707031 1.179688 192.605469 C 1.25 192.445312 1.226562 192.238281 1.15625 192.171875 C 1.144531 192.148438 1.128906 192.140625 1.113281 192.140625 Z M 1.113281 192.140625 " fill-opacity="1" fill-rule="nonzero"/><path fill="#2874a6" d="M 5.765625 203.667969 C 5.695312 203.671875 5.628906 203.679688 5.558594 203.683594 C 5.558594 203.6875 5.558594 203.6875 5.558594 203.691406 C 5.707031 203.839844 5.847656 204 5.988281 204.152344 C 6.035156 204.203125 6.078125 204.257812 6.121094 204.308594 C 6.0625 204.199219 6.003906 204.09375 5.945312 203.988281 C 5.878906 203.871094 5.828125 203.773438 5.765625 203.667969 Z M 5.765625 203.667969 " fill-opacity="1" fill-rule="nonzero"/><path fill="#2874a6" d="M 86.335938 118.328125 L 90.171875 118.328125 L 90.171875 129.84375 L 86.335938 129.84375 Z M 86.335938 118.328125 " fill-opacity="1" fill-rule="nonzero"/><path fill="#2874a6" d="M 82.523438 125.851562 L 82.5 122.015625 L 94.011719 121.945312 L 94.035156 125.785156 Z M 82.523438 125.851562 " fill-opacity="1" fill-rule="nonzero"/><g fill="#2874a6" fill-opacity="1"><g transform="translate(102.056483, 184.361787)"><g><path d="M 1.09375 -12.03125 C 1.09375 -14.382812 1.582031 -16.484375 2.5625 -18.328125 C 3.550781 -20.179688 4.953125 -21.625 6.765625 -22.65625 C 8.578125 -23.6875 10.660156 -24.203125 13.015625 -24.203125 C 16.003906 -24.203125 18.519531 -23.398438 20.5625 -21.796875 C 22.601562 -20.203125 23.914062 -18.035156 24.5 -15.296875 L 17.328125 -15.296875 C 16.898438 -16.203125 16.304688 -16.890625 15.546875 -17.359375 C 14.785156 -17.835938 13.910156 -18.078125 12.921875 -18.078125 C 11.378906 -18.078125 10.144531 -17.523438 9.21875 -16.421875 C 8.300781 -15.328125 7.84375 -13.863281 7.84375 -12.03125 C 7.84375 -10.175781 8.300781 -8.695312 9.21875 -7.59375 C 10.144531 -6.5 11.378906 -5.953125 12.921875 -5.953125 C 13.910156 -5.953125 14.785156 -6.1875 15.546875 -6.65625 C 16.304688 -7.132812 16.898438 -7.828125 17.328125 -8.734375 L 24.5 -8.734375 C 23.914062 -5.992188 22.601562 -3.820312 20.5625 -2.21875 C 18.519531 -0.625 16.003906 0.171875 13.015625 0.171875 C 10.660156 0.171875 8.578125 -0.34375 6.765625 -1.375 C 4.953125 -2.40625 3.550781 -3.84375 2.5625 -5.6875 C 1.582031 -7.539062 1.09375 -9.65625 1.09375 -12.03125 Z M 1.09375 -12.03125 "/></g></g></g><g fill="#2874a6" fill-opacity="1"><g transform="translate(127.812289, 184.361787)"><g><path d="M 1.09375 -12.03125 C 1.09375 -14.382812 1.582031 -16.484375 2.5625 -18.328125 C 3.550781 -20.179688 4.953125 -21.625 6.765625 -22.65625 C 8.578125 -23.6875 10.660156 -24.203125 13.015625 -24.203125 C 16.003906 -24.203125 18.519531 -23.398438 20.5625 -21.796875 C 22.601562 -20.203125 23.914062 -18.035156 24.5 -15.296875 L 17.328125 -15.296875 C 16.898438 -16.203125 16.304688 -16.890625 15.546875 -17.359375 C 14.785156 -17.835938 13.910156 -18.078125 12.921875 -18.078125 C 11.378906 -18.078125 10.144531 -17.523438 9.21875 -16.421875 C 8.300781 -15.328125 7.84375 -13.863281 7.84375 -12.03125 C 7.84375 -10.175781 8.300781 -8.695312 9.21875 -7.59375 C 10.144531 -6.5 11.378906 -5.953125 12.921875 -5.953125 C 13.910156 -5.953125 14.785156 -6.1875 15.546875 -6.65625 C 16.304688 -7.132812 16.898438 -7.828125 17.328125 -8.734375 L 24.5 -8.734375 C 23.914062 -5.992188 22.601562 -3.820312 20.5625 -2.21875 C 18.519531 -0.625 16.003906 0.171875 13.015625 0.171875 C 10.660156 0.171875 8.578125 -0.34375 6.765625 -1.375 C 4.953125 -2.40625 3.550781 -3.84375 2.5625 -5.6875 C 1.582031 -7.539062 1.09375 -9.65625 1.09375 -12.03125 Z M 1.09375 -12.03125 "/></g></g></g><g fill="#2874a6" fill-opacity="1"><g transform="translate(153.568095, 184.361787)"><g><path d="M 10.9375 0.234375 C 8.15625 0.234375 5.867188 -0.425781 4.078125 -1.75 C 2.285156 -3.070312 1.320312 -4.96875 1.1875 -7.4375 L 8.296875 -7.4375 C 8.359375 -6.601562 8.601562 -5.992188 9.03125 -5.609375 C 9.46875 -5.222656 10.023438 -5.03125 10.703125 -5.03125 C 11.316406 -5.03125 11.820312 -5.179688 12.21875 -5.484375 C 12.613281 -5.796875 12.8125 -6.222656 12.8125 -6.765625 C 12.8125 -7.460938 12.484375 -8.003906 11.828125 -8.390625 C 11.171875 -8.773438 10.101562 -9.207031 8.625 -9.6875 C 7.0625 -10.207031 5.800781 -10.707031 4.84375 -11.1875 C 3.882812 -11.675781 3.046875 -12.390625 2.328125 -13.328125 C 1.609375 -14.273438 1.25 -15.507812 1.25 -17.03125 C 1.25 -18.570312 1.632812 -19.890625 2.40625 -20.984375 C 3.175781 -22.085938 4.238281 -22.921875 5.59375 -23.484375 C 6.957031 -24.046875 8.503906 -24.328125 10.234375 -24.328125 C 13.015625 -24.328125 15.238281 -23.675781 16.90625 -22.375 C 18.570312 -21.070312 19.460938 -19.242188 19.578125 -16.890625 L 12.34375 -16.890625 C 12.3125 -17.617188 12.085938 -18.160156 11.671875 -18.515625 C 11.253906 -18.878906 10.71875 -19.0625 10.0625 -19.0625 C 9.5625 -19.0625 9.148438 -18.914062 8.828125 -18.625 C 8.515625 -18.332031 8.359375 -17.910156 8.359375 -17.359375 C 8.359375 -16.910156 8.53125 -16.519531 8.875 -16.1875 C 9.226562 -15.863281 9.664062 -15.582031 10.1875 -15.34375 C 10.71875 -15.101562 11.488281 -14.800781 12.5 -14.4375 C 14.019531 -13.914062 15.269531 -13.398438 16.25 -12.890625 C 17.238281 -12.378906 18.085938 -11.664062 18.796875 -10.75 C 19.515625 -9.832031 19.875 -8.671875 19.875 -7.265625 C 19.875 -5.835938 19.515625 -4.554688 18.796875 -3.421875 C 18.085938 -2.296875 17.0625 -1.40625 15.71875 -0.75 C 14.375 -0.09375 12.78125 0.234375 10.9375 0.234375 Z M 10.9375 0.234375 "/></g></g></g><g fill="#2874a6" fill-opacity="1"><g transform="translate(174.634857, 184.361787)"><g><path d="M 10.9375 0.234375 C 8.15625 0.234375 5.867188 -0.425781 4.078125 -1.75 C 2.285156 -3.070312 1.320312 -4.96875 1.1875 -7.4375 L 8.296875 -7.4375 C 8.359375 -6.601562 8.601562 -5.992188 9.03125 -5.609375 C 9.46875 -5.222656 10.023438 -5.03125 10.703125 -5.03125 C 11.316406 -5.03125 11.820312 -5.179688 12.21875 -5.484375 C 12.613281 -5.796875 12.8125 -6.222656 12.8125 -6.765625 C 12.8125 -7.460938 12.484375 -8.003906 11.828125 -8.390625 C 11.171875 -8.773438 10.101562 -9.207031 8.625 -9.6875 C 7.0625 -10.207031 5.800781 -10.707031 4.84375 -11.1875 C 3.882812 -11.675781 3.046875 -12.390625 2.328125 -13.328125 C 1.609375 -14.273438 1.25 -15.507812 1.25 -17.03125 C 1.25 -18.570312 1.632812 -19.890625 2.40625 -20.984375 C 3.175781 -22.085938 4.238281 -22.921875 5.59375 -23.484375 C 6.957031 -24.046875 8.503906 -24.328125 10.234375 -24.328125 C 13.015625 -24.328125 15.238281 -23.675781 16.90625 -22.375 C 18.570312 -21.070312 19.460938 -19.242188 19.578125 -16.890625 L 12.34375 -16.890625 C 12.3125 -17.617188 12.085938 -18.160156 11.671875 -18.515625 C 11.253906 -18.878906 10.71875 -19.0625 10.0625 -19.0625 C 9.5625 -19.0625 9.148438 -18.914062 8.828125 -18.625 C 8.515625 -18.332031 8.359375 -17.910156 8.359375 -17.359375 C 8.359375 -16.910156 8.53125 -16.519531 8.875 -16.1875 C 9.226562 -15.863281 9.664062 -15.582031 10.1875 -15.34375 C 10.71875 -15.101562 11.488281 -14.800781 12.5 -14.4375 C 14.019531 -13.914062 15.269531 -13.398438 16.25 -12.890625 C 17.238281 -12.378906 18.085938 -11.664062 18.796875 -10.75 C 19.515625 -9.832031 19.875 -8.671875 19.875 -7.265625 C 19.875 -5.835938 19.515625 -4.554688 18.796875 -3.421875 C 18.085938 -2.296875 17.0625 -1.40625 15.71875 -0.75 C 14.375 -0.09375 12.78125 0.234375 10.9375 0.234375 Z M 10.9375 0.234375 "/></g></g></g><g fill="#000000" fill-opacity="1"><g transform="translate(195.709886, 184.361787)"><g/></g></g><g fill="#2ecc71" fill-opacity="1"><g transform="translate(202.202218, 184.361787)"><g><path d="M 17.203125 -16.078125 C 16.816406 -16.710938 16.285156 -17.195312 15.609375 -17.53125 C 14.941406 -17.875 14.15625 -18.046875 13.25 -18.046875 C 11.570312 -18.046875 10.25 -17.5 9.28125 -16.40625 C 8.320312 -15.320312 7.84375 -13.863281 7.84375 -12.03125 C 7.84375 -9.96875 8.359375 -8.394531 9.390625 -7.3125 C 10.421875 -6.238281 11.925781 -5.703125 13.90625 -5.703125 C 16.238281 -5.703125 17.898438 -6.757812 18.890625 -8.875 L 12.203125 -8.875 L 12.203125 -13.65625 L 24.640625 -13.65625 L 24.640625 -7.203125 C 24.117188 -5.929688 23.351562 -4.738281 22.34375 -3.625 C 21.332031 -2.519531 20.054688 -1.609375 18.515625 -0.890625 C 16.972656 -0.179688 15.21875 0.171875 13.25 0.171875 C 10.851562 0.171875 8.726562 -0.34375 6.875 -1.375 C 5.03125 -2.40625 3.601562 -3.84375 2.59375 -5.6875 C 1.59375 -7.539062 1.09375 -9.65625 1.09375 -12.03125 C 1.09375 -14.382812 1.59375 -16.484375 2.59375 -18.328125 C 3.601562 -20.179688 5.023438 -21.625 6.859375 -22.65625 C 8.703125 -23.6875 10.820312 -24.203125 13.21875 -24.203125 C 16.226562 -24.203125 18.71875 -23.472656 20.6875 -22.015625 C 22.664062 -20.566406 23.890625 -18.585938 24.359375 -16.078125 Z M 17.203125 -16.078125 "/></g></g></g><g fill="#2ecc71" fill-opacity="1"><g transform="translate(227.924056, 184.361787)"><g><path d="M 17.0625 -3.90625 L 8.5625 -3.90625 L 7.265625 0 L 0.265625 0 L 9 -23.953125 L 16.6875 -23.953125 L 25.390625 0 L 18.359375 0 Z M 15.390625 -9 L 12.8125 -16.75 L 10.265625 -9 Z M 15.390625 -9 "/></g></g></g><g fill="#2ecc71" fill-opacity="1"><g transform="translate(253.57793, 184.361787)"><g><path d="M 14.03125 0 L 9.28125 -8.84375 L 8.5625 -8.84375 L 8.5625 0 L 1.90625 0 L 1.90625 -23.953125 L 12.40625 -23.953125 C 14.332031 -23.953125 15.960938 -23.617188 17.296875 -22.953125 C 18.628906 -22.285156 19.632812 -21.367188 20.3125 -20.203125 C 21 -19.035156 21.34375 -17.726562 21.34375 -16.28125 C 21.34375 -14.644531 20.894531 -13.207031 20 -11.96875 C 19.101562 -10.738281 17.796875 -9.863281 16.078125 -9.34375 L 21.484375 0 Z M 8.5625 -13.390625 L 11.859375 -13.390625 C 12.765625 -13.390625 13.441406 -13.601562 13.890625 -14.03125 C 14.347656 -14.46875 14.578125 -15.09375 14.578125 -15.90625 C 14.578125 -16.675781 14.34375 -17.28125 13.875 -17.71875 C 13.414062 -18.164062 12.742188 -18.390625 11.859375 -18.390625 L 8.5625 -18.390625 Z M 8.5625 -13.390625 "/></g></g></g><g fill="#2ecc71" fill-opacity="1"><g transform="translate(276.037811, 184.361787)"><g><path d="M 14.03125 0 L 9.28125 -8.84375 L 8.5625 -8.84375 L 8.5625 0 L 1.90625 0 L 1.90625 -23.953125 L 12.40625 -23.953125 C 14.332031 -23.953125 15.960938 -23.617188 17.296875 -22.953125 C 18.628906 -22.285156 19.632812 -21.367188 20.3125 -20.203125 C 21 -19.035156 21.34375 -17.726562 21.34375 -16.28125 C 21.34375 -14.644531 20.894531 -13.207031 20 -11.96875 C 19.101562 -10.738281 17.796875 -9.863281 16.078125 -9.34375 L 21.484375 0 Z M 8.5625 -13.390625 L 11.859375 -13.390625 C 12.765625 -13.390625 13.441406 -13.601562 13.890625 -14.03125 C 14.347656 -14.46875 14.578125 -15.09375 14.578125 -15.90625 C 14.578125 -16.675781 14.34375 -17.28125 13.875 -17.71875 C 13.414062 -18.164062 12.742188 -18.390625 11.859375 -18.390625 L 8.5625 -18.390625 Z M 8.5625 -13.390625 "/></g></g></g><g fill="#2ecc71" fill-opacity="1"><g transform="translate(298.497693, 184.361787)"><g><path d="M 13.390625 0.234375 C 11.148438 0.234375 9.085938 -0.289062 7.203125 -1.34375 C 5.328125 -2.394531 3.835938 -3.851562 2.734375 -5.71875 C 1.640625 -7.59375 1.09375 -9.707031 1.09375 -12.0625 C 1.09375 -14.414062 1.640625 -16.523438 2.734375 -18.390625 C 3.835938 -20.265625 5.328125 -21.722656 7.203125 -22.765625 C 9.085938 -23.804688 11.148438 -24.328125 13.390625 -24.328125 C 15.648438 -24.328125 17.710938 -23.804688 19.578125 -22.765625 C 21.453125 -21.722656 22.929688 -20.265625 24.015625 -18.390625 C 25.109375 -16.523438 25.65625 -14.414062 25.65625 -12.0625 C 25.65625 -9.707031 25.109375 -7.59375 24.015625 -5.71875 C 22.929688 -3.851562 21.445312 -2.394531 19.5625 -1.34375 C 17.6875 -0.289062 15.628906 0.234375 13.390625 0.234375 Z M 13.390625 -5.953125 C 15.085938 -5.953125 16.425781 -6.503906 17.40625 -7.609375 C 18.394531 -8.722656 18.890625 -10.207031 18.890625 -12.0625 C 18.890625 -13.96875 18.394531 -15.46875 17.40625 -16.5625 C 16.425781 -17.664062 15.085938 -18.21875 13.390625 -18.21875 C 11.671875 -18.21875 10.320312 -17.664062 9.34375 -16.5625 C 8.375 -15.46875 7.890625 -13.96875 7.890625 -12.0625 C 7.890625 -10.1875 8.375 -8.695312 9.34375 -7.59375 C 10.320312 -6.5 11.671875 -5.953125 13.390625 -5.953125 Z M 13.390625 -5.953125 "/></g></g></g><g fill="#2ecc71" fill-opacity="1"><g transform="translate(325.238891, 184.361787)"><g><path d="M 17.203125 -12.296875 C 18.597656 -11.984375 19.707031 -11.285156 20.53125 -10.203125 C 21.363281 -9.128906 21.78125 -7.90625 21.78125 -6.53125 C 21.78125 -4.488281 21.078125 -2.890625 19.671875 -1.734375 C 18.265625 -0.578125 16.296875 0 13.765625 0 L 1.90625 0 L 1.90625 -23.953125 L 13.390625 -23.953125 C 15.835938 -23.953125 17.753906 -23.410156 19.140625 -22.328125 C 20.535156 -21.242188 21.234375 -19.710938 21.234375 -17.734375 C 21.234375 -16.335938 20.863281 -15.164062 20.125 -14.21875 C 19.394531 -13.28125 18.421875 -12.640625 17.203125 -12.296875 Z M 8.5625 -14.4375 L 11.921875 -14.4375 C 13.597656 -14.4375 14.4375 -15.128906 14.4375 -16.515625 C 14.4375 -17.941406 13.597656 -18.65625 11.921875 -18.65625 L 8.5625 -18.65625 Z M 12.4375 -5.375 C 14.113281 -5.375 14.953125 -6.078125 14.953125 -7.484375 C 14.953125 -8.203125 14.726562 -8.753906 14.28125 -9.140625 C 13.84375 -9.523438 13.21875 -9.71875 12.40625 -9.71875 L 8.5625 -9.71875 L 8.5625 -5.375 Z M 12.4375 -5.375 "/></g></g></g><g fill="#2ecc71" fill-opacity="1"><g transform="translate(348.038564, 184.361787)"><g><path d="M 13.390625 0.234375 C 11.148438 0.234375 9.085938 -0.289062 7.203125 -1.34375 C 5.328125 -2.394531 3.835938 -3.851562 2.734375 -5.71875 C 1.640625 -7.59375 1.09375 -9.707031 1.09375 -12.0625 C 1.09375 -14.414062 1.640625 -16.523438 2.734375 -18.390625 C 3.835938 -20.265625 5.328125 -21.722656 7.203125 -22.765625 C 9.085938 -23.804688 11.148438 -24.328125 13.390625 -24.328125 C 15.648438 -24.328125 17.710938 -23.804688 19.578125 -22.765625 C 21.453125 -21.722656 22.929688 -20.265625 24.015625 -18.390625 C 25.109375 -16.523438 25.65625 -14.414062 25.65625 -12.0625 C 25.65625 -9.707031 25.109375 -7.59375 24.015625 -5.71875 C 22.929688 -3.851562 21.445312 -2.394531 19.5625 -1.34375 C 17.6875 -0.289062 15.628906 0.234375 13.390625 0.234375 Z M 13.390625 -5.953125 C 15.085938 -5.953125 16.425781 -6.503906 17.40625 -7.609375 C 18.394531 -8.722656 18.890625 -10.207031 18.890625 -12.0625 C 18.890625 -13.96875 18.394531 -15.46875 17.40625 -16.5625 C 16.425781 -17.664062 15.085938 -18.21875 13.390625 -18.21875 C 11.671875 -18.21875 10.320312 -17.664062 9.34375 -16.5625 C 8.375 -15.46875 7.890625 -13.96875 7.890625 -12.0625 C 7.890625 -10.1875 8.375 -8.695312 9.34375 -7.59375 C 10.320312 -6.5 11.671875 -5.953125 13.390625 -5.953125 Z M 13.390625 -5.953125 "/></g></g></g><g fill="#7f8c8d" fill-opacity="1"><g transform="translate(135.664829, 198.438474)"><g><path d="M 6.515625 0 L 4.25 -4.109375 L 3.625 -4.109375 L 3.625 0 L 0.96875 0 L 0.96875 -10.90625 L 5.421875 -10.90625 C 6.273438 -10.90625 7.003906 -10.753906 7.609375 -10.453125 C 8.222656 -10.148438 8.675781 -9.738281 8.96875 -9.21875 C 9.269531 -8.695312 9.421875 -8.113281 9.421875 -7.46875 C 9.421875 -6.75 9.21875 -6.101562 8.8125 -5.53125 C 8.40625 -4.957031 7.800781 -4.550781 7 -4.3125 L 9.515625 0 Z M 3.625 -6 L 5.265625 -6 C 5.753906 -6 6.117188 -6.113281 6.359375 -6.34375 C 6.597656 -6.582031 6.71875 -6.921875 6.71875 -7.359375 C 6.71875 -7.773438 6.597656 -8.101562 6.359375 -8.34375 C 6.117188 -8.582031 5.753906 -8.703125 5.265625 -8.703125 L 3.625 -8.703125 Z M 3.625 -6 "/></g></g></g><g fill="#7f8c8d" fill-opacity="1"><g transform="translate(148.122361, 198.438474)"><g><path d="M 9.125 -4.46875 C 9.125 -4.21875 9.109375 -3.960938 9.078125 -3.703125 L 3.078125 -3.703125 C 3.117188 -3.160156 3.289062 -2.742188 3.59375 -2.453125 C 3.894531 -2.171875 4.269531 -2.03125 4.71875 -2.03125 C 5.382812 -2.03125 5.847656 -2.3125 6.109375 -2.875 L 8.9375 -2.875 C 8.789062 -2.300781 8.523438 -1.785156 8.140625 -1.328125 C 7.765625 -0.878906 7.289062 -0.523438 6.71875 -0.265625 C 6.15625 -0.00390625 5.519531 0.125 4.8125 0.125 C 3.96875 0.125 3.210938 -0.0546875 2.546875 -0.421875 C 1.878906 -0.785156 1.359375 -1.300781 0.984375 -1.96875 C 0.617188 -2.644531 0.4375 -3.429688 0.4375 -4.328125 C 0.4375 -5.234375 0.617188 -6.019531 0.984375 -6.6875 C 1.347656 -7.363281 1.863281 -7.882812 2.53125 -8.25 C 3.195312 -8.613281 3.957031 -8.796875 4.8125 -8.796875 C 5.65625 -8.796875 6.398438 -8.617188 7.046875 -8.265625 C 7.703125 -7.910156 8.210938 -7.40625 8.578125 -6.75 C 8.941406 -6.101562 9.125 -5.34375 9.125 -4.46875 Z M 6.421875 -5.171875 C 6.421875 -5.628906 6.265625 -5.988281 5.953125 -6.25 C 5.640625 -6.519531 5.25 -6.65625 4.78125 -6.65625 C 4.332031 -6.65625 3.957031 -6.523438 3.65625 -6.265625 C 3.351562 -6.015625 3.164062 -5.648438 3.09375 -5.171875 Z M 6.421875 -5.171875 "/></g></g></g><g fill="#7f8c8d" fill-opacity="1"><g transform="translate(160.020698, 198.438474)"><g><path d="M 4.25 -8.796875 C 4.863281 -8.796875 5.398438 -8.671875 5.859375 -8.421875 C 6.316406 -8.171875 6.671875 -7.84375 6.921875 -7.4375 L 6.921875 -8.671875 L 9.578125 -8.671875 L 9.578125 -0.015625 C 9.578125 0.785156 9.421875 1.507812 9.109375 2.15625 C 8.796875 2.800781 8.3125 3.3125 7.65625 3.6875 C 7.007812 4.070312 6.207031 4.265625 5.25 4.265625 C 3.96875 4.265625 2.925781 3.960938 2.125 3.359375 C 1.332031 2.753906 0.878906 1.9375 0.765625 0.90625 L 3.390625 0.90625 C 3.472656 1.226562 3.664062 1.484375 3.96875 1.671875 C 4.28125 1.867188 4.664062 1.96875 5.125 1.96875 C 5.675781 1.96875 6.113281 1.8125 6.4375 1.5 C 6.757812 1.1875 6.921875 0.679688 6.921875 -0.015625 L 6.921875 -1.25 C 6.660156 -0.84375 6.300781 -0.507812 5.84375 -0.25 C 5.394531 0 4.863281 0.125 4.25 0.125 C 3.539062 0.125 2.894531 -0.0546875 2.3125 -0.421875 C 1.726562 -0.796875 1.269531 -1.320312 0.9375 -2 C 0.601562 -2.675781 0.4375 -3.457031 0.4375 -4.34375 C 0.4375 -5.238281 0.601562 -6.019531 0.9375 -6.6875 C 1.269531 -7.363281 1.726562 -7.882812 2.3125 -8.25 C 2.894531 -8.613281 3.539062 -8.796875 4.25 -8.796875 Z M 6.921875 -4.328125 C 6.921875 -4.992188 6.738281 -5.515625 6.375 -5.890625 C 6.007812 -6.273438 5.5625 -6.46875 5.03125 -6.46875 C 4.5 -6.46875 4.050781 -6.28125 3.6875 -5.90625 C 3.320312 -5.53125 3.140625 -5.007812 3.140625 -4.34375 C 3.140625 -3.6875 3.320312 -3.160156 3.6875 -2.765625 C 4.050781 -2.378906 4.5 -2.1875 5.03125 -2.1875 C 5.5625 -2.1875 6.007812 -2.378906 6.375 -2.765625 C 6.738281 -3.148438 6.921875 -3.671875 6.921875 -4.328125 Z M 6.921875 -4.328125 "/></g></g></g><g fill="#7f8c8d" fill-opacity="1"><g transform="translate(172.897627, 198.438474)"><g><path d="M 2.296875 -9.5625 C 1.828125 -9.5625 1.445312 -9.695312 1.15625 -9.96875 C 0.863281 -10.25 0.71875 -10.59375 0.71875 -11 C 0.71875 -11.414062 0.863281 -11.757812 1.15625 -12.03125 C 1.445312 -12.300781 1.828125 -12.4375 2.296875 -12.4375 C 2.753906 -12.4375 3.128906 -12.300781 3.421875 -12.03125 C 3.722656 -11.757812 3.875 -11.414062 3.875 -11 C 3.875 -10.59375 3.722656 -10.25 3.421875 -9.96875 C 3.128906 -9.695312 2.753906 -9.5625 2.296875 -9.5625 Z M 3.625 -8.671875 L 3.625 0 L 0.96875 0 L 0.96875 -8.671875 Z M 3.625 -8.671875 "/></g></g></g><g fill="#7f8c8d" fill-opacity="1"><g transform="translate(179.809854, 198.438474)"><g><path d="M 4.484375 0.125 C 3.734375 0.125 3.0625 -0.00390625 2.46875 -0.265625 C 1.875 -0.523438 1.40625 -0.878906 1.0625 -1.328125 C 0.726562 -1.773438 0.539062 -2.28125 0.5 -2.84375 L 3.125 -2.84375 C 3.15625 -2.539062 3.289062 -2.296875 3.53125 -2.109375 C 3.78125 -1.921875 4.085938 -1.828125 4.453125 -1.828125 C 4.785156 -1.828125 5.039062 -1.890625 5.21875 -2.015625 C 5.40625 -2.148438 5.5 -2.320312 5.5 -2.53125 C 5.5 -2.78125 5.367188 -2.960938 5.109375 -3.078125 C 4.847656 -3.203125 4.429688 -3.335938 3.859375 -3.484375 C 3.234375 -3.628906 2.710938 -3.78125 2.296875 -3.9375 C 1.878906 -4.09375 1.519531 -4.34375 1.21875 -4.6875 C 0.925781 -5.039062 0.78125 -5.515625 0.78125 -6.109375 C 0.78125 -6.597656 0.914062 -7.046875 1.1875 -7.453125 C 1.457031 -7.867188 1.859375 -8.195312 2.390625 -8.4375 C 2.929688 -8.675781 3.566406 -8.796875 4.296875 -8.796875 C 5.390625 -8.796875 6.25 -8.523438 6.875 -7.984375 C 7.5 -7.441406 7.859375 -6.726562 7.953125 -5.84375 L 5.5 -5.84375 C 5.457031 -6.144531 5.320312 -6.378906 5.09375 -6.546875 C 4.875 -6.722656 4.582031 -6.8125 4.21875 -6.8125 C 3.914062 -6.8125 3.679688 -6.753906 3.515625 -6.640625 C 3.347656 -6.523438 3.265625 -6.363281 3.265625 -6.15625 C 3.265625 -5.90625 3.394531 -5.71875 3.65625 -5.59375 C 3.914062 -5.46875 4.328125 -5.34375 4.890625 -5.21875 C 5.535156 -5.050781 6.054688 -4.882812 6.453125 -4.71875 C 6.859375 -4.5625 7.210938 -4.304688 7.515625 -3.953125 C 7.828125 -3.597656 7.988281 -3.117188 8 -2.515625 C 8 -2.003906 7.851562 -1.550781 7.5625 -1.15625 C 7.28125 -0.757812 6.875 -0.445312 6.34375 -0.21875 C 5.8125 0.0078125 5.191406 0.125 4.484375 0.125 Z M 4.484375 0.125 "/></g></g></g><g fill="#7f8c8d" fill-opacity="1"><g transform="translate(190.807283, 198.438474)"><g><path d="M 5.796875 -2.25 L 5.796875 0 L 4.4375 0 C 3.476562 0 2.726562 -0.234375 2.1875 -0.703125 C 1.644531 -1.171875 1.375 -1.941406 1.375 -3.015625 L 1.375 -6.46875 L 0.328125 -6.46875 L 0.328125 -8.671875 L 1.375 -8.671875 L 1.375 -10.78125 L 4.03125 -10.78125 L 4.03125 -8.671875 L 5.78125 -8.671875 L 5.78125 -6.46875 L 4.03125 -6.46875 L 4.03125 -2.984375 C 4.03125 -2.722656 4.09375 -2.535156 4.21875 -2.421875 C 4.34375 -2.304688 4.550781 -2.25 4.84375 -2.25 Z M 5.796875 -2.25 "/></g></g></g><g fill="#7f8c8d" fill-opacity="1"><g transform="translate(199.44368, 198.438474)"><g><path d="M 3.625 -7.21875 C 3.925781 -7.695312 4.3125 -8.070312 4.78125 -8.34375 C 5.25 -8.625 5.769531 -8.765625 6.34375 -8.765625 L 6.34375 -5.953125 L 5.609375 -5.953125 C 4.941406 -5.953125 4.441406 -5.804688 4.109375 -5.515625 C 3.785156 -5.234375 3.625 -4.734375 3.625 -4.015625 L 3.625 0 L 0.96875 0 L 0.96875 -8.671875 L 3.625 -8.671875 Z M 3.625 -7.21875 "/></g></g></g><g fill="#7f8c8d" fill-opacity="1"><g transform="translate(208.421795, 198.438474)"><g><path d="M 4.90625 0.125 C 4.0625 0.125 3.296875 -0.0546875 2.609375 -0.421875 C 1.929688 -0.785156 1.398438 -1.300781 1.015625 -1.96875 C 0.628906 -2.644531 0.4375 -3.429688 0.4375 -4.328125 C 0.4375 -5.222656 0.628906 -6.007812 1.015625 -6.6875 C 1.410156 -7.363281 1.953125 -7.882812 2.640625 -8.25 C 3.328125 -8.613281 4.09375 -8.796875 4.9375 -8.796875 C 5.789062 -8.796875 6.554688 -8.613281 7.234375 -8.25 C 7.921875 -7.882812 8.457031 -7.363281 8.84375 -6.6875 C 9.238281 -6.007812 9.4375 -5.222656 9.4375 -4.328125 C 9.4375 -3.441406 9.238281 -2.660156 8.84375 -1.984375 C 8.445312 -1.304688 7.90625 -0.785156 7.21875 -0.421875 C 6.53125 -0.0546875 5.757812 0.125 4.90625 0.125 Z M 4.90625 -2.171875 C 5.414062 -2.171875 5.847656 -2.359375 6.203125 -2.734375 C 6.554688 -3.109375 6.734375 -3.640625 6.734375 -4.328125 C 6.734375 -5.023438 6.5625 -5.554688 6.21875 -5.921875 C 5.875 -6.296875 5.445312 -6.484375 4.9375 -6.484375 C 4.414062 -6.484375 3.984375 -6.300781 3.640625 -5.9375 C 3.304688 -5.570312 3.140625 -5.035156 3.140625 -4.328125 C 3.140625 -3.640625 3.304688 -3.109375 3.640625 -2.734375 C 3.972656 -2.359375 4.394531 -2.171875 4.90625 -2.171875 Z M 4.90625 -2.171875 "/></g></g></g><g fill="#7f8c8d" fill-opacity="1"><g transform="translate(220.646327, 198.438474)"><g/></g></g><g fill="#7f8c8d" fill-opacity="1"><g transform="translate(226.269308, 198.438474)"><g><path d="M 13.3125 -10.90625 L 13.3125 0 L 10.65625 0 L 10.65625 -6.53125 L 8.21875 0 L 6.078125 0 L 3.625 -6.546875 L 3.625 0 L 0.96875 0 L 0.96875 -10.90625 L 4.09375 -10.90625 L 7.15625 -3.359375 L 10.1875 -10.90625 Z M 13.3125 -10.90625 "/></g></g></g><g fill="#7f8c8d" fill-opacity="1"><g transform="translate(242.858646, 198.438474)"><g><path d="M 9.125 -4.46875 C 9.125 -4.21875 9.109375 -3.960938 9.078125 -3.703125 L 3.078125 -3.703125 C 3.117188 -3.160156 3.289062 -2.742188 3.59375 -2.453125 C 3.894531 -2.171875 4.269531 -2.03125 4.71875 -2.03125 C 5.382812 -2.03125 5.847656 -2.3125 6.109375 -2.875 L 8.9375 -2.875 C 8.789062 -2.300781 8.523438 -1.785156 8.140625 -1.328125 C 7.765625 -0.878906 7.289062 -0.523438 6.71875 -0.265625 C 6.15625 -0.00390625 5.519531 0.125 4.8125 0.125 C 3.96875 0.125 3.210938 -0.0546875 2.546875 -0.421875 C 1.878906 -0.785156 1.359375 -1.300781 0.984375 -1.96875 C 0.617188 -2.644531 0.4375 -3.429688 0.4375 -4.328125 C 0.4375 -5.234375 0.617188 -6.019531 0.984375 -6.6875 C 1.347656 -7.363281 1.863281 -7.882812 2.53125 -8.25 C 3.195312 -8.613281 3.957031 -8.796875 4.8125 -8.796875 C 5.65625 -8.796875 6.398438 -8.617188 7.046875 -8.265625 C 7.703125 -7.910156 8.210938 -7.40625 8.578125 -6.75 C 8.941406 -6.101562 9.125 -5.34375 9.125 -4.46875 Z M 6.421875 -5.171875 C 6.421875 -5.628906 6.265625 -5.988281 5.953125 -6.25 C 5.640625 -6.519531 5.25 -6.65625 4.78125 -6.65625 C 4.332031 -6.65625 3.957031 -6.523438 3.65625 -6.265625 C 3.351562 -6.015625 3.164062 -5.648438 3.09375 -5.171875 Z M 6.59375 -10.890625 L 2.859375 -9.3125 L 2.859375 -11.15625 L 6.59375 -12.953125 Z M 6.59375 -10.890625 "/></g></g></g><g fill="#7f8c8d" fill-opacity="1"><g transform="translate(254.756985, 198.438474)"><g><path d="M 0.4375 -4.34375 C 0.4375 -5.238281 0.601562 -6.019531 0.9375 -6.6875 C 1.269531 -7.363281 1.726562 -7.882812 2.3125 -8.25 C 2.894531 -8.613281 3.539062 -8.796875 4.25 -8.796875 C 4.820312 -8.796875 5.34375 -8.675781 5.8125 -8.4375 C 6.28125 -8.195312 6.648438 -7.875 6.921875 -7.46875 L 6.921875 -11.5 L 9.578125 -11.5 L 9.578125 0 L 6.921875 0 L 6.921875 -1.25 C 6.671875 -0.832031 6.316406 -0.5 5.859375 -0.25 C 5.398438 0 4.863281 0.125 4.25 0.125 C 3.539062 0.125 2.894531 -0.0546875 2.3125 -0.421875 C 1.726562 -0.796875 1.269531 -1.320312 0.9375 -2 C 0.601562 -2.675781 0.4375 -3.457031 0.4375 -4.34375 Z M 6.921875 -4.328125 C 6.921875 -4.992188 6.738281 -5.515625 6.375 -5.890625 C 6.007812 -6.273438 5.5625 -6.46875 5.03125 -6.46875 C 4.5 -6.46875 4.050781 -6.28125 3.6875 -5.90625 C 3.320312 -5.53125 3.140625 -5.007812 3.140625 -4.34375 C 3.140625 -3.6875 3.320312 -3.160156 3.6875 -2.765625 C 4.050781 -2.378906 4.5 -2.1875 5.03125 -2.1875 C 5.5625 -2.1875 6.007812 -2.378906 6.375 -2.765625 C 6.738281 -3.148438 6.921875 -3.671875 6.921875 -4.328125 Z M 6.921875 -4.328125 "/></g></g></g><g fill="#7f8c8d" fill-opacity="1"><g transform="translate(267.63391, 198.438474)"><g><path d="M 2.296875 -9.5625 C 1.828125 -9.5625 1.445312 -9.695312 1.15625 -9.96875 C 0.863281 -10.25 0.71875 -10.59375 0.71875 -11 C 0.71875 -11.414062 0.863281 -11.757812 1.15625 -12.03125 C 1.445312 -12.300781 1.828125 -12.4375 2.296875 -12.4375 C 2.753906 -12.4375 3.128906 -12.300781 3.421875 -12.03125 C 3.722656 -11.757812 3.875 -11.414062 3.875 -11 C 3.875 -10.59375 3.722656 -10.25 3.421875 -9.96875 C 3.128906 -9.695312 2.753906 -9.5625 2.296875 -9.5625 Z M 3.625 -8.671875 L 3.625 0 L 0.96875 0 L 0.96875 -8.671875 Z M 3.625 -8.671875 "/></g></g></g><g fill="#7f8c8d" fill-opacity="1"><g transform="translate(274.54613, 198.438474)"><g><path d="M 0.4375 -4.328125 C 0.4375 -5.234375 0.617188 -6.019531 0.984375 -6.6875 C 1.347656 -7.363281 1.859375 -7.882812 2.515625 -8.25 C 3.179688 -8.613281 3.9375 -8.796875 4.78125 -8.796875 C 5.875 -8.796875 6.785156 -8.507812 7.515625 -7.9375 C 8.242188 -7.363281 8.722656 -6.5625 8.953125 -5.53125 L 6.125 -5.53125 C 5.882812 -6.1875 5.421875 -6.515625 4.734375 -6.515625 C 4.242188 -6.515625 3.851562 -6.328125 3.5625 -5.953125 C 3.28125 -5.578125 3.140625 -5.035156 3.140625 -4.328125 C 3.140625 -3.628906 3.28125 -3.085938 3.5625 -2.703125 C 3.851562 -2.328125 4.242188 -2.140625 4.734375 -2.140625 C 5.421875 -2.140625 5.882812 -2.472656 6.125 -3.140625 L 8.953125 -3.140625 C 8.722656 -2.117188 8.238281 -1.316406 7.5 -0.734375 C 6.769531 -0.160156 5.863281 0.125 4.78125 0.125 C 3.9375 0.125 3.179688 -0.0546875 2.515625 -0.421875 C 1.859375 -0.785156 1.347656 -1.300781 0.984375 -1.96875 C 0.617188 -2.644531 0.4375 -3.429688 0.4375 -4.328125 Z M 0.4375 -4.328125 "/></g></g></g><g fill="#7f8c8d" fill-opacity="1"><g transform="translate(286.273604, 198.438474)"><g><path d="M 4.90625 0.125 C 4.0625 0.125 3.296875 -0.0546875 2.609375 -0.421875 C 1.929688 -0.785156 1.398438 -1.300781 1.015625 -1.96875 C 0.628906 -2.644531 0.4375 -3.429688 0.4375 -4.328125 C 0.4375 -5.222656 0.628906 -6.007812 1.015625 -6.6875 C 1.410156 -7.363281 1.953125 -7.882812 2.640625 -8.25 C 3.328125 -8.613281 4.09375 -8.796875 4.9375 -8.796875 C 5.789062 -8.796875 6.554688 -8.613281 7.234375 -8.25 C 7.921875 -7.882812 8.457031 -7.363281 8.84375 -6.6875 C 9.238281 -6.007812 9.4375 -5.222656 9.4375 -4.328125 C 9.4375 -3.441406 9.238281 -2.660156 8.84375 -1.984375 C 8.445312 -1.304688 7.90625 -0.785156 7.21875 -0.421875 C 6.53125 -0.0546875 5.757812 0.125 4.90625 0.125 Z M 4.90625 -2.171875 C 5.414062 -2.171875 5.847656 -2.359375 6.203125 -2.734375 C 6.554688 -3.109375 6.734375 -3.640625 6.734375 -4.328125 C 6.734375 -5.023438 6.5625 -5.554688 6.21875 -5.921875 C 5.875 -6.296875 5.445312 -6.484375 4.9375 -6.484375 C 4.414062 -6.484375 3.984375 -6.300781 3.640625 -5.9375 C 3.304688 -5.570312 3.140625 -5.035156 3.140625 -4.328125 C 3.140625 -3.640625 3.304688 -3.109375 3.640625 -2.734375 C 3.972656 -2.359375 4.394531 -2.171875 4.90625 -2.171875 Z M 4.90625 -2.171875 "/></g></g></g><g fill="#7f8c8d" fill-opacity="1"><g transform="translate(298.498129, 198.438474)"><g/></g></g><g fill="#7f8c8d" fill-opacity="1"><g transform="translate(304.121102, 198.438474)"><g><path d="M 5.046875 -10.90625 C 6.191406 -10.90625 7.191406 -10.675781 8.046875 -10.21875 C 8.910156 -9.757812 9.578125 -9.117188 10.046875 -8.296875 C 10.523438 -7.472656 10.765625 -6.523438 10.765625 -5.453125 C 10.765625 -4.390625 10.523438 -3.441406 10.046875 -2.609375 C 9.578125 -1.773438 8.910156 -1.128906 8.046875 -0.671875 C 7.179688 -0.222656 6.179688 0 5.046875 0 L 0.96875 0 L 0.96875 -10.90625 Z M 4.875 -2.296875 C 5.882812 -2.296875 6.664062 -2.566406 7.21875 -3.109375 C 7.78125 -3.660156 8.0625 -4.441406 8.0625 -5.453125 C 8.0625 -6.453125 7.78125 -7.234375 7.21875 -7.796875 C 6.664062 -8.359375 5.882812 -8.640625 4.875 -8.640625 L 3.625 -8.640625 L 3.625 -2.296875 Z M 4.875 -2.296875 "/></g></g></g><g fill="#7f8c8d" fill-opacity="1"><g transform="translate(317.743604, 198.438474)"><g><path d="M 2.296875 -9.5625 C 1.828125 -9.5625 1.445312 -9.695312 1.15625 -9.96875 C 0.863281 -10.25 0.71875 -10.59375 0.71875 -11 C 0.71875 -11.414062 0.863281 -11.757812 1.15625 -12.03125 C 1.445312 -12.300781 1.828125 -12.4375 2.296875 -12.4375 C 2.753906 -12.4375 3.128906 -12.300781 3.421875 -12.03125 C 3.722656 -11.757812 3.875 -11.414062 3.875 -11 C 3.875 -10.59375 3.722656 -10.25 3.421875 -9.96875 C 3.128906 -9.695312 2.753906 -9.5625 2.296875 -9.5625 Z M 3.625 -8.671875 L 3.625 0 L 0.96875 0 L 0.96875 -8.671875 Z M 3.625 -8.671875 "/></g></g></g><g fill="#7f8c8d" fill-opacity="1"><g transform="translate(324.655824, 198.438474)"><g><path d="M 4.25 -8.796875 C 4.863281 -8.796875 5.398438 -8.671875 5.859375 -8.421875 C 6.316406 -8.171875 6.671875 -7.84375 6.921875 -7.4375 L 6.921875 -8.671875 L 9.578125 -8.671875 L 9.578125 -0.015625 C 9.578125 0.785156 9.421875 1.507812 9.109375 2.15625 C 8.796875 2.800781 8.3125 3.3125 7.65625 3.6875 C 7.007812 4.070312 6.207031 4.265625 5.25 4.265625 C 3.96875 4.265625 2.925781 3.960938 2.125 3.359375 C 1.332031 2.753906 0.878906 1.9375 0.765625 0.90625 L 3.390625 0.90625 C 3.472656 1.226562 3.664062 1.484375 3.96875 1.671875 C 4.28125 1.867188 4.664062 1.96875 5.125 1.96875 C 5.675781 1.96875 6.113281 1.8125 6.4375 1.5 C 6.757812 1.1875 6.921875 0.679688 6.921875 -0.015625 L 6.921875 -1.25 C 6.660156 -0.84375 6.300781 -0.507812 5.84375 -0.25 C 5.394531 0 4.863281 0.125 4.25 0.125 C 3.539062 0.125 2.894531 -0.0546875 2.3125 -0.421875 C 1.726562 -0.796875 1.269531 -1.320312 0.9375 -2 C 0.601562 -2.675781 0.4375 -3.457031 0.4375 -4.34375 C 0.4375 -5.238281 0.601562 -6.019531 0.9375 -6.6875 C 1.269531 -7.363281 1.726562 -7.882812 2.3125 -8.25 C 2.894531 -8.613281 3.539062 -8.796875 4.25 -8.796875 Z M 6.921875 -4.328125 C 6.921875 -4.992188 6.738281 -5.515625 6.375 -5.890625 C 6.007812 -6.273438 5.5625 -6.46875 5.03125 -6.46875 C 4.5 -6.46875 4.050781 -6.28125 3.6875 -5.90625 C 3.320312 -5.53125 3.140625 -5.007812 3.140625 -4.34375 C 3.140625 -3.6875 3.320312 -3.160156 3.6875 -2.765625 C 4.050781 -2.378906 4.5 -2.1875 5.03125 -2.1875 C 5.5625 -2.1875 6.007812 -2.378906 6.375 -2.765625 C 6.738281 -3.148438 6.921875 -3.671875 6.921875 -4.328125 Z M 6.921875 -4.328125 "/></g></g></g><g fill="#7f8c8d" fill-opacity="1"><g transform="translate(337.532749, 198.438474)"><g><path d="M 2.296875 -9.5625 C 1.828125 -9.5625 1.445312 -9.695312 1.15625 -9.96875 C 0.863281 -10.25 0.71875 -10.59375 0.71875 -11 C 0.71875 -11.414062 0.863281 -11.757812 1.15625 -12.03125 C 1.445312 -12.300781 1.828125 -12.4375 2.296875 -12.4375 C 2.753906 -12.4375 3.128906 -12.300781 3.421875 -12.03125 C 3.722656 -11.757812 3.875 -11.414062 3.875 -11 C 3.875 -10.59375 3.722656 -10.25 3.421875 -9.96875 C 3.128906 -9.695312 2.753906 -9.5625 2.296875 -9.5625 Z M 3.625 -8.671875 L 3.625 0 L 0.96875 0 L 0.96875 -8.671875 Z M 3.625 -8.671875 "/></g></g></g><g fill="#7f8c8d" fill-opacity="1"><g transform="translate(344.444969, 198.438474)"><g><path d="M 5.796875 -2.25 L 5.796875 0 L 4.4375 0 C 3.476562 0 2.726562 -0.234375 2.1875 -0.703125 C 1.644531 -1.171875 1.375 -1.941406 1.375 -3.015625 L 1.375 -6.46875 L 0.328125 -6.46875 L 0.328125 -8.671875 L 1.375 -8.671875 L 1.375 -10.78125 L 4.03125 -10.78125 L 4.03125 -8.671875 L 5.78125 -8.671875 L 5.78125 -6.46875 L 4.03125 -6.46875 L 4.03125 -2.984375 C 4.03125 -2.722656 4.09375 -2.535156 4.21875 -2.421875 C 4.34375 -2.304688 4.550781 -2.25 4.84375 -2.25 Z M 5.796875 -2.25 "/></g></g></g><g fill="#7f8c8d" fill-opacity="1"><g transform="translate(353.081359, 198.438474)"><g><path d="M 0.4375 -4.34375 C 0.4375 -5.238281 0.601562 -6.019531 0.9375 -6.6875 C 1.269531 -7.363281 1.726562 -7.882812 2.3125 -8.25 C 2.894531 -8.613281 3.539062 -8.796875 4.25 -8.796875 C 4.863281 -8.796875 5.398438 -8.671875 5.859375 -8.421875 C 6.316406 -8.171875 6.671875 -7.84375 6.921875 -7.4375 L 6.921875 -8.671875 L 9.578125 -8.671875 L 9.578125 0 L 6.921875 0 L 6.921875 -1.234375 C 6.660156 -0.828125 6.300781 -0.5 5.84375 -0.25 C 5.382812 0 4.847656 0.125 4.234375 0.125 C 3.535156 0.125 2.894531 -0.0546875 2.3125 -0.421875 C 1.726562 -0.796875 1.269531 -1.320312 0.9375 -2 C 0.601562 -2.675781 0.4375 -3.457031 0.4375 -4.34375 Z M 6.921875 -4.328125 C 6.921875 -4.992188 6.738281 -5.515625 6.375 -5.890625 C 6.007812 -6.273438 5.5625 -6.46875 5.03125 -6.46875 C 4.5 -6.46875 4.050781 -6.28125 3.6875 -5.90625 C 3.320312 -5.53125 3.140625 -5.007812 3.140625 -4.34375 C 3.140625 -3.6875 3.320312 -3.160156 3.6875 -2.765625 C 4.050781 -2.378906 4.5 -2.1875 5.03125 -2.1875 C 5.5625 -2.1875 6.007812 -2.378906 6.375 -2.765625 C 6.738281 -3.148438 6.921875 -3.671875 6.921875 -4.328125 Z M 6.921875 -4.328125 "/></g></g></g><g fill="#7f8c8d" fill-opacity="1"><g transform="translate(365.958284, 198.438474)"><g><path d="M 3.625 -11.5 L 3.625 0 L 0.96875 0 L 0.96875 -11.5 Z M 3.625 -11.5 "/></g></g></g></svg>