<svg xmlns="http://www.w3.org/2000/svg" xmlns:xlink="http://www.w3.org/1999/xlink" width="500" zoomAndPan="magnify" viewBox="0 0 375 374.999991" height="500" preserveAspectRatio="xMidYMid meet" version="1.0"><defs><clipPath id="a7d7476064"><path d="M 20.851562 275 L 22 275 L 22 278 L 20.851562 278 Z M 20.851562 275 " clip-rule="nonzero"/></clipPath></defs><path fill="#2874a6" d="M 217.375 39.949219 C 217.011719 39.949219 215.625 40.171875 214.238281 40.316406 C 197.242188 41.921875 184.765625 46.226562 172.289062 54.617188 C 166.597656 58.480469 157.40625 67.382812 152.882812 73.4375 C 149.453125 78.035156 149.160156 78.253906 145.660156 78.691406 C 143.617188 78.910156 139.09375 80.296875 135.589844 81.753906 C 131.214844 83.578125 127.785156 84.527344 124.503906 84.746094 C 117.5 85.183594 113.121094 86.351562 106.554688 89.488281 C 97.363281 93.792969 89.917969 102.621094 86.929688 112.542969 C 85.835938 116.117188 86.273438 116.484375 88.824219 113.785156 C 91.671875 110.644531 101.738281 103.351562 106.191406 101.160156 C 114.214844 97.148438 117.644531 96.347656 127.054688 96.347656 C 135.808594 96.347656 139.382812 97.148438 149.597656 101.453125 C 150.910156 102.039062 150.910156 101.890625 149.308594 99.558594 C 148.359375 98.171875 147.117188 96.640625 146.535156 96.199219 C 145.003906 94.960938 145.367188 94.742188 151.570312 92.550781 C 158.644531 90.070312 169.953125 89.488281 177.25 91.167969 C 199.867188 96.492188 217.886719 119.035156 223.429688 149.242188 C 225.253906 159.089844 225.253906 180.027344 223.429688 189.003906 C 217.011719 220.738281 201.105469 239.5625 177.6875 243.355469 C 168.203125 244.886719 155.433594 242.40625 146.605469 237.445312 C 137.414062 232.191406 128.441406 223.585938 123.40625 215.195312 L 121.65625 212.277344 L 130.558594 212.203125 C 142.667969 212.128906 149.234375 210.671875 159.230469 205.78125 C 176.300781 197.320312 188.191406 182.144531 193.59375 161.789062 C 196 152.671875 196.363281 137.859375 194.320312 130.273438 C 192.207031 122.539062 187.828125 114.367188 182.867188 108.96875 C 178.78125 104.445312 172.140625 99.191406 171.484375 99.847656 C 171.339844 99.996094 171.925781 101.890625 172.945312 104.082031 C 176.15625 111.304688 179.148438 121.882812 180.386719 130.34375 C 184.472656 158.433594 174.113281 181.78125 153.246094 191.628906 C 145.804688 195.058594 139.894531 196.152344 130.339844 195.714844 C 115.820312 194.984375 108.671875 192.066406 93.128906 180.539062 C 80.144531 170.835938 78.613281 170.035156 67.375 166.238281 C 62.050781 164.417969 55.777344 161.9375 53.441406 160.695312 C 49.355469 158.507812 39.945312 150.40625 40.671875 149.679688 C 40.820312 149.460938 43.445312 149.824219 46.4375 150.410156 C 75.621094 155.953125 107.503906 158.214844 119.25 155.441406 C 123.917969 154.347656 129.316406 151.867188 132.453125 149.386719 C 134.207031 148 134.203125 148 124.429688 147.488281 C 102.03125 146.320312 76.859375 143.40625 51.542969 139.101562 L 35.859375 136.472656 L 35.640625 133.117188 C 35.128906 125.457031 39.070312 114.953125 44.175781 110.355469 C 48.117188 106.78125 49.5 106.125 61.976562 102.183594 C 74.671875 98.171875 79.488281 95.835938 88.386719 89.195312 C 95.539062 83.796875 101.375 80.808594 109.472656 78.179688 C 116.113281 75.992188 126.761719 74.167969 134.496094 73.949219 C 137.707031 73.800781 140.261719 73.4375 140.042969 73.074219 C 139.238281 71.832031 129.242188 67.675781 124.9375 66.796875 C 118.882812 65.558594 107.503906 65.707031 102.25 67.164062 C 93.714844 69.425781 89.554688 71.90625 78.902344 80.808594 C 72.773438 85.988281 68.90625 87.808594 57.089844 91.167969 C 45.125 94.523438 38.851562 97.804688 33.742188 103.351562 C 26.667969 110.9375 23.089844 120.640625 23.019531 132.097656 C 22.945312 140.339844 23.894531 144.28125 27.6875 152.160156 C 33.378906 163.90625 43.082031 171.566406 59.933594 177.695312 C 82.113281 185.71875 91.890625 195.203125 100.863281 217.089844 C 106.992188 232.195312 112.246094 241.457031 120.269531 251.234375 L 124.648438 256.5625 L 121.4375 260.71875 C 107.503906 278.59375 99.625 298.292969 97.507812 320.691406 C 96.632812 329.300781 97.214844 339.804688 98.894531 347.101562 C 99.1875 348.390625 99.234375 349.367188 99.054688 349.710938 C 99.058594 349.71875 99.0625 349.726562 99.070312 349.734375 C 100.210938 350.828125 101.109375 352.125 101.980469 353.4375 C 105.746094 355.261719 110.371094 357.140625 113.558594 357.972656 C 115.382812 358.410156 117.71875 359.210938 118.8125 359.796875 C 121.800781 361.328125 133.109375 364.539062 139.09375 365.558594 C 142.085938 366.070312 146.535156 367.019531 148.941406 367.675781 C 160.859375 370.925781 189.253906 370.992188 210.148438 368.019531 C 210.160156 367.871094 210.175781 367.722656 210.195312 367.578125 C 210.253906 367.132812 210.3125 366.6875 210.410156 366.25 C 210.5 365.867188 210.59375 365.488281 210.84375 365.179688 C 210.910156 365.105469 210.980469 365.035156 211.050781 364.972656 L 212.125 362.933594 C 216.355469 354.542969 227.371094 347.246094 230.726562 350.601562 C 230.757812 350.632812 230.800781 350.640625 230.832031 350.667969 C 231.972656 350.417969 233.121094 350.21875 234.285156 350.066406 C 235.597656 349.828125 236.914062 349.621094 238.21875 349.34375 C 239.585938 348.570312 240.992188 347.640625 242.402344 346.445312 C 244.953125 344.328125 247.433594 341.921875 247.945312 341.265625 C 249.113281 339.660156 254.292969 336.085938 258.378906 334.042969 C 262.550781 331.9375 267.835938 330.148438 273.292969 328.828125 C 275.542969 327.753906 277.847656 326.792969 280.21875 326.019531 C 283.578125 325.007812 286.972656 324.09375 290.449219 324.003906 C 291.441406 323.976562 292.4375 324.035156 293.445312 324.15625 L 293.398438 324.121094 C 291.792969 322.878906 289.75 321.128906 288.730469 320.253906 L 286.976562 318.71875 L 289.605469 315.949219 C 291.136719 314.34375 292.304688 312.808594 292.304688 312.519531 C 292.304688 312.226562 294.128906 309.964844 296.316406 307.484375 C 298.503906 305.003906 300.328125 302.667969 300.328125 302.304688 C 300.328125 301.941406 301.859375 299.023438 303.683594 295.8125 C 306.96875 290.046875 309.8125 281.074219 309.8125 276.625 C 309.8125 273.414062 311.855469 265.828125 313.023438 264.660156 C 314.847656 262.835938 328.707031 259.917969 335.859375 259.84375 C 342.058594 259.769531 342.71875 259.625 345.636719 257.582031 C 347.3125 256.34375 349.210938 254.589844 349.792969 253.570312 C 350.449219 252.546875 350.523438 252.109375 350.085938 252.546875 C 349.429688 253.058594 347.894531 252.984375 344.6875 252.257812 C 341.332031 251.378906 339.578125 251.308594 337.464844 251.890625 C 333.671875 252.914062 333.890625 251.820312 337.976562 249.191406 C 341.402344 247.003906 348.480469 245.105469 350.378906 245.835938 C 350.960938 246.054688 351.398438 245.980469 351.398438 245.617188 C 351.398438 244.523438 348.84375 242.699219 344.46875 240.65625 C 340.457031 238.757812 339.433594 238.613281 331.1875 238.613281 C 322.800781 238.613281 322.363281 238.539062 323.457031 237.300781 C 325.28125 235.402344 331.773438 232.484375 334.765625 232.265625 C 336.296875 232.121094 337.535156 231.828125 337.535156 231.609375 C 337.535156 231.097656 332.136719 228.691406 327.6875 227.230469 C 326.082031 226.722656 321.414062 226.285156 317.402344 226.285156 L 310.03125 226.285156 L 309.082031 223.730469 C 307.695312 219.644531 304.269531 213.953125 301.058594 210.304688 L 298.066406 206.949219 L 299.964844 206.441406 C 302.882812 205.710938 309.8125 206.804688 313.972656 208.699219 L 317.839844 210.453125 L 315.722656 206.292969 C 314.554688 204.03125 312.222656 200.601562 310.617188 198.707031 C 306.820312 194.402344 298.140625 188.566406 292.523438 186.523438 C 290.1875 185.648438 287.78125 184.769531 287.195312 184.480469 C 286.464844 184.1875 287.125 183.75 289.019531 183.167969 C 293.910156 181.707031 303.394531 183.675781 308.425781 187.179688 C 311.34375 189.292969 311.199219 187.980469 307.84375 181.269531 C 302.808594 171.054688 291.28125 161.496094 278.953125 157.339844 L 275.15625 156.023438 L 278.078125 155.003906 C 284.570312 152.742188 297.335938 154.347656 304.632812 158.433594 C 308.425781 160.550781 308.355469 159.964844 303.613281 152.816406 C 295.441406 140.632812 279.171875 130.417969 265.527344 129.03125 C 263.414062 128.8125 261.660156 128.375 261.660156 128.082031 C 261.660156 127.71875 263.414062 126.332031 265.527344 124.945312 C 275.304688 118.453125 284.644531 115.605469 296.460938 115.460938 C 300.984375 115.386719 304.707031 115.167969 304.707031 114.949219 C 304.707031 114.367188 298.066406 110.136719 294.128906 108.167969 C 289.457031 105.90625 282.308594 103.570312 276.398438 102.476562 C 270.417969 101.382812 251.667969 102.035156 246.851562 103.496094 C 242.839844 104.808594 243.058594 104.007812 247.652344 100.796875 C 252.175781 97.660156 258.453125 95.835938 266.039062 95.324219 L 272.96875 94.886719 L 270.78125 92.917969 C 267.863281 90.144531 259.328125 86.058594 253.636719 84.527344 C 244.152344 82.046875 229.121094 83.359375 221.316406 87.300781 C 219.785156 88.101562 218.324219 88.6875 218.179688 88.46875 C 218.03125 88.320312 220.878906 85.257812 224.597656 81.683594 C 230.070312 76.429688 232.769531 74.386719 238.679688 71.394531 C 245.902344 67.746094 254.949219 64.464844 260.566406 63.515625 C 265.382812 62.714844 265.746094 62.496094 264.140625 61.402344 C 260.421875 58.847656 248.382812 55.929688 237.949219 55.125 C 221.316406 53.738281 205.410156 57.386719 193.082031 65.488281 L 190.601562 67.164062 L 193.082031 63.515625 C 197.019531 57.753906 207.453125 47.320312 212.925781 43.746094 C 217.523438 40.679688 218.761719 39.660156 217.375 39.949219 Z M 237.078125 133.742188 C 237.242188 133.738281 237.511719 133.863281 237.878906 134.066406 C 238.679688 134.503906 241.890625 137.347656 244.953125 140.484375 C 248.746094 144.28125 251.226562 147.636719 252.980469 151.0625 C 255.167969 155.585938 255.460938 156.828125 255.460938 162.007812 C 255.460938 168.71875 254.292969 171.566406 249.332031 176.964844 L 246.414062 180.246094 L 246.339844 174.265625 C 246.339844 162.59375 243.714844 150.410156 238.753906 138.882812 C 237.054688 134.941406 236.589844 133.75 237.078125 133.742188 Z M 261.84375 189.457031 C 262.9375 189.421875 264.03125 189.730469 265.527344 190.386719 C 269.46875 192.066406 271.363281 194.695312 271.65625 199 C 272.023438 203.8125 270.269531 206.875 265.964844 209.066406 C 260.640625 211.835938 255.53125 209.648438 253.199219 203.59375 C 251.226562 198.269531 253.199219 193.015625 258.160156 190.609375 C 259.65625 189.878906 260.75 189.496094 261.84375 189.457031 Z M 248.539062 200.75 C 248.875 200.601562 249.222656 201.367188 249.695312 203.011719 C 250.207031 204.6875 251.445312 207.460938 252.394531 209.210938 C 255.460938 214.390625 256.847656 223.074219 256.917969 237.082031 L 256.917969 249.410156 L 254.367188 250.796875 C 250.425781 252.914062 248.089844 255.902344 247.070312 259.988281 C 245.902344 265.097656 247.507812 270.714844 251.082031 273.925781 C 252.46875 275.164062 253.636719 276.769531 253.636719 277.644531 C 253.636719 279.835938 249.332031 292.894531 247.363281 296.613281 C 246.414062 298.4375 244.660156 301.210938 243.421875 302.816406 C 242.253906 304.421875 239.191406 310.332031 236.636719 316.019531 C 234.085938 321.636719 231.019531 327.769531 229.777344 329.519531 C 228.609375 331.269531 227.296875 333.675781 226.859375 334.84375 C 226.351562 336.449219 224.378906 338.128906 219.128906 341.410156 C 207.601562 348.707031 201.910156 354.46875 200.011719 360.597656 C 199.648438 361.984375 199.867188 362.277344 201.035156 362.277344 C 201.910156 362.277344 202.566406 362.496094 202.566406 362.785156 C 202.492188 363.953125 199.722656 366.652344 197.824219 367.382812 C 195.78125 368.183594 170.390625 368.402344 165.941406 367.675781 C 163.386719 367.238281 163.242188 367.019531 163.679688 365.265625 C 165.429688 357.972656 170.757812 348.558594 177.324219 341.265625 C 182.355469 335.792969 191.476562 328.640625 200.742188 323.097656 C 214.238281 315 220.222656 310.839844 224.746094 306.316406 C 228.613281 302.453125 235.90625 293.695312 235.175781 293.695312 C 235.03125 293.695312 232.550781 294.863281 229.707031 296.25 C 216.792969 302.523438 191.039062 309.015625 179 309.015625 L 174.695312 309.015625 L 177.394531 304.054688 C 181.992188 295.667969 187.757812 288.878906 204.097656 272.539062 C 221.535156 255.175781 228.976562 245.835938 236.054688 232.777344 C 240.136719 225.261719 246.265625 209.722656 247.433594 203.960938 C 247.871094 201.953125 248.203125 200.894531 248.539062 200.75 Z M 272.167969 222.925781 C 274.429688 222.925781 275.449219 223.4375 277.785156 225.773438 C 280.191406 228.179688 280.628906 229.054688 280.628906 231.609375 C 280.628906 235.039062 279.683594 237.226562 277.421875 239.050781 C 272.023438 243.5 263.121094 239.269531 263.121094 232.265625 C 263.121094 226.867188 266.914062 223 272.167969 222.925781 Z M 263.914062 252.5 C 266.101562 252.324219 268.410156 252.894531 270.5625 254.445312 C 276.546875 258.675781 276.398438 268.160156 270.34375 272.757812 C 269.25 273.488281 266.914062 274.363281 265.015625 274.507812 C 260.421875 275.09375 256.480469 272.539062 254.730469 267.867188 C 251.832031 260.261719 257.34375 253.027344 263.914062 252.5 Z M 299.746094 255.175781 C 300.253906 255.320312 301.714844 257.21875 302.957031 259.261719 C 305.582031 263.566406 307.625 270.859375 307.625 275.675781 C 307.625 289.683594 297.777344 305.222656 284.570312 312.152344 L 279.390625 314.855469 L 278.441406 309.308594 C 276.980469 300.773438 277.785156 288.953125 280.484375 281.148438 C 281.652344 277.644531 283.769531 272.902344 285.082031 270.570312 C 288 265.679688 298.359375 254.738281 299.746094 255.175781 Z M 134.132812 266.703125 C 134.351562 266.703125 135.226562 268.890625 136.027344 271.589844 C 140.332031 285.742188 141.863281 298.730469 142.742188 327.257812 C 143.105469 339.074219 143.910156 352.355469 144.566406 356.730469 C 145.148438 361.179688 145.511719 364.828125 145.441406 364.976562 C 145.003906 365.339844 129.753906 361.621094 122.898438 359.429688 L 115.820312 357.167969 L 114.359375 352.574219 C 111.660156 344.621094 110.640625 338.128906 110.640625 329.082031 C 110.640625 313.539062 114.289062 299.023438 122.023438 284.140625 C 125.667969 277.207031 132.890625 266.773438 134.132812 266.703125 Z M 256.015625 298.082031 C 257.8125 298.054688 259.65625 298.527344 261.371094 299.605469 C 269.46875 304.566406 267.277344 316.75 257.867188 319.230469 C 255.386719 319.960938 254.511719 319.816406 251.664062 318.429688 C 247.582031 316.457031 245.609375 313.394531 245.609375 309.015625 C 245.609375 302.726562 250.617188 298.15625 256.015625 298.082031 Z M 238.679688 327.257812 C 241.742188 327.257812 242.691406 327.621094 244.664062 329.445312 C 245.976562 330.683594 247.289062 332.582031 247.582031 333.675781 C 247.945312 335.210938 247.652344 335.863281 245.902344 337.105469 C 244.734375 337.90625 241.671875 340.605469 238.972656 343.089844 C 236.34375 345.640625 233.863281 347.683594 233.425781 347.683594 C 233.0625 347.683594 232.042969 346.953125 231.164062 346.007812 C 224.160156 338.566406 228.683594 327.257812 238.679688 327.257812 Z M 238.679688 327.257812 " fill-opacity="1" fill-rule="nonzero"/><path fill="#2874a6" d="M 118.664062 108.3125 C 113.414062 109.917969 108.890625 113.929688 104.949219 120.421875 C 102.6875 124.070312 102.46875 125.382812 104.292969 123.851562 C 105.023438 123.195312 105.824219 123.851562 107.792969 126.84375 C 112.390625 133.847656 120.125 137.203125 127.492188 135.523438 C 134.714844 133.847656 140.1875 129.25 142.304688 123.121094 C 143.105469 120.933594 143.542969 120.496094 144.929688 120.640625 L 146.609375 120.933594 L 145.003906 118.746094 C 142.304688 114.878906 136.246094 109.988281 132.746094 108.824219 C 129.242188 107.582031 121.875 107.363281 118.664062 108.3125 Z M 125.523438 115.898438 C 126.617188 117.578125 125.230469 120.859375 123.1875 121.589844 C 121.875 122.101562 121.144531 121.882812 119.6875 120.421875 C 117.425781 118.160156 117.425781 116.191406 119.90625 114.292969 C 121.582031 112.90625 122.019531 112.835938 123.335938 113.710938 C 124.136719 114.292969 125.085938 115.242188 125.523438 115.898438 Z M 125.523438 115.898438 " fill-opacity="1" fill-rule="nonzero"/><path fill="#2874a6" d="M 51.105469 115.609375 C 49.792969 116.410156 48.261719 117.796875 47.605469 118.671875 C 45.5625 121.664062 46.4375 128.8125 48.917969 128.8125 C 49.429688 128.8125 51.398438 127.644531 53.296875 126.257812 C 58.402344 122.320312 60.152344 117.871094 57.671875 115.386719 C 56.140625 113.855469 53.878906 113.929688 51.105469 115.609375 Z M 51.105469 115.609375 " fill-opacity="1" fill-rule="nonzero"/><g clip-path="url(#a7d7476064)"><path fill="#2874a6" d="M 19.972656 275.820312 C 19.75 275.835938 19.527344 275.859375 19.304688 275.875 C 19.308594 275.882812 19.308594 275.886719 19.308594 275.890625 C 19.777344 276.375 20.226562 276.882812 20.679688 277.359375 C 20.824219 277.523438 20.960938 277.695312 21.105469 277.855469 C 20.914062 277.515625 20.726562 277.179688 20.539062 276.84375 C 20.332031 276.46875 20.160156 276.160156 19.972656 275.820312 Z M 19.972656 275.820312 " fill-opacity="1" fill-rule="nonzero"/></g><path fill="#2874a6" d="M 276.605469 3.984375 L 288.832031 3.984375 L 288.832031 40.664062 L 276.605469 40.664062 Z M 276.605469 3.984375 " fill-opacity="1" fill-rule="nonzero"/><path fill="#2874a6" d="M 264.460938 27.953125 L 264.386719 15.726562 L 301.0625 15.507812 L 301.136719 27.734375 Z M 264.460938 27.953125 " fill-opacity="1" fill-rule="nonzero"/></svg>